<svg width="28" height="28" viewBox="0 0 20 20" fill="none" xmlns="http://www.w3.org/2000/svg">
<path d="M10.9986 15.251C10.9986 15.1198 10.9727 14.9899 10.9225 14.8687C10.8723 14.7475 10.7987 14.6374 10.706 14.5446C10.6132 14.4519 10.5031 14.3783 10.3819 14.3281C10.2607 14.2779 10.1307 14.252 9.99956 14.252C9.86837 14.252 9.73846 14.2779 9.61726 14.3281C9.49605 14.3783 9.38593 14.4519 9.29316 14.5446C9.20039 14.6374 9.12681 14.7475 9.0766 14.8687C9.0264 14.9899 9.00056 15.1198 9.00056 15.251C9.00877 15.5104 9.11756 15.7564 9.30392 15.9369C9.49028 16.1175 9.73958 16.2184 9.99906 16.2184C10.2585 16.2184 10.5078 16.1175 10.6942 15.9369C10.8806 15.7564 10.9894 15.5104 10.9976 15.251H10.9986ZM10.7386 7.39802C10.7126 7.20969 10.6162 7.03822 10.4687 6.9183C10.3212 6.79837 10.1336 6.73895 9.94394 6.75203C9.75428 6.76511 9.57667 6.84973 9.44702 6.98878C9.31737 7.12782 9.24536 7.31091 9.24556 7.50102L9.24956 12.002L9.25656 12.104C9.28247 12.2924 9.37894 12.4638 9.52645 12.5838C9.67397 12.7037 9.86152 12.7631 10.0512 12.75C10.2408 12.7369 10.4185 12.6523 10.5481 12.5133C10.6777 12.3742 10.7498 12.1911 10.7496 12.001L10.7456 7.49902L10.7386 7.39802ZM11.9686 1.91002C11.1116 0.362023 8.88656 0.362023 8.03056 1.91002L0.284559 15.911C-0.545441 17.411 0.539559 19.251 2.25456 19.251H17.7446C19.4586 19.251 20.5436 17.411 19.7136 15.911L11.9676 1.91102L11.9686 1.91002ZM9.34256 2.63602C9.40738 2.51868 9.50247 2.42085 9.61793 2.35272C9.73339 2.2846 9.865 2.24866 9.99906 2.24866C10.1331 2.24866 10.2647 2.2846 10.3802 2.35272C10.4956 2.42085 10.5907 2.51868 10.6556 2.63602L18.4006 16.638C18.4637 16.7522 18.496 16.8808 18.4942 17.0113C18.4924 17.1417 18.4566 17.2695 18.3904 17.3818C18.3241 17.4942 18.2297 17.5874 18.1165 17.6521C18.0032 17.7169 17.875 17.751 17.7446 17.751H2.25456C2.12402 17.7511 1.9957 17.7172 1.8823 17.6525C1.76891 17.5878 1.67435 17.4947 1.60799 17.3823C1.54163 17.2699 1.50576 17.1421 1.50393 17.0115C1.5021 16.881 1.53438 16.7523 1.59756 16.638L9.34256 2.63602Z" fill="black"/>
</svg>
